<svg width="44" height="44" viewBox="0 0 44 44" fill="none" xmlns="http://www.w3.org/2000/svg">
<path d="M40.6306 10.3697C39.2309 10.9888 37.7466 11.3954 36.2269 11.576C37.8288 10.618 39.0277 9.11021 39.6002 7.33369C38.0969 8.22835 36.4487 8.85535 34.7309 9.19452C33.577 7.95992 32.0475 7.14112 30.3803 6.86543C28.7131 6.58973 27.0014 6.87259 25.5115 7.67002C24.0216 8.46745 22.8369 9.73477 22.1416 11.275C21.4463 12.8152 21.2793 14.542 21.6665 16.1869C18.6179 16.0341 15.6355 15.2418 12.9129 13.8616C10.1903 12.4813 7.78845 10.5439 5.86322 8.17519C5.18175 9.34568 4.82364 10.6763 4.82555 12.0307C4.82555 14.689 6.17855 17.0375 8.23555 18.4125C7.01823 18.3742 5.82771 18.0455 4.76322 17.4537V17.549C4.76359 19.3195 5.37623 21.0353 6.49727 22.4056C7.61832 23.7759 9.17877 24.7164 10.9141 25.0675C9.78401 25.3738 8.59911 25.4189 7.44905 25.1995C7.93831 26.7234 8.8919 28.0562 10.1763 29.0112C11.4607 29.9662 13.0116 30.4956 14.6119 30.5254C13.0214 31.7745 11.2004 32.6978 9.25283 33.2427C7.30529 33.7875 5.26945 33.9432 3.26172 33.7007C6.7665 35.9546 10.8464 37.1512 15.0134 37.1474C29.1172 37.1474 36.8301 25.4635 36.8301 15.3307C36.8301 15.0007 36.8209 14.667 36.8062 14.3407C38.3075 13.2557 39.6031 11.9116 40.6324 10.3715L40.6306 10.3697Z" fill="#FEFEFE"/>
</svg>
