<svg width="44" height="44" viewBox="0 0 44 44" fill="none" xmlns="http://www.w3.org/2000/svg">
<path d="M22.0003 40.3337C11.8748 40.3337 3.66699 32.1258 3.66699 22.0003C3.66699 11.8748 11.8748 3.66699 22.0003 3.66699C32.1258 3.66699 40.3337 11.8748 40.3337 22.0003C40.3337 32.1258 32.1258 40.3337 22.0003 40.3337ZM16.2987 24.1453L16.3225 24.1325L17.9175 29.3942C18.1228 29.9643 18.4052 30.067 18.748 30.0193C19.0927 29.9735 19.2742 29.7883 19.4997 29.572L21.6777 27.4673L26.3527 30.9287C27.207 31.3998 27.8212 31.156 28.0338 30.1367L31.0717 15.7963C31.4072 14.4617 30.8205 13.9263 29.7847 14.3517L11.9408 21.245C10.7235 21.7327 10.7308 22.4147 11.7208 22.7172L16.2987 24.1472V24.1453Z" fill="#FEFEFE"/>
</svg>
